<svg xmlns="http://www.w3.org/2000/svg" width="1320" height="1530" viewBox="0 0 1320 1530"><defs><marker id="gray" markerHeight="7" markerUnits="strokeWidth" markerWidth="7" orient="auto-start-reverse" refX="8.5" refY="5" viewBox="0 0 10 10"><path fill="#5f6368" d="M0,0 L10,5 L0,10 z"/></marker><marker id="blue" markerHeight="7" markerUnits="strokeWidth" markerWidth="7" orient="auto-start-reverse" refX="8.5" refY="5" viewBox="0 0 10 10"><path fill="#1a73e8" d="M0,0 L10,5 L0,10 z"/></marker><marker id="purple" markerHeight="7" markerUnits="strokeWidth" markerWidth="7" orient="auto-start-reverse" refX="8.5" refY="5" viewBox="0 0 10 10"><path fill="#9334e6" d="M0,0 L10,5 L0,10 z"/></marker><marker id="green" markerHeight="7" markerUnits="strokeWidth" markerWidth="7" orient="auto-start-reverse" refX="8.5" refY="5" viewBox="0 0 10 10"><path fill="#188038" d="M0,0 L10,5 L0,10 z"/></marker><marker id="orange" markerHeight="7" markerUnits="strokeWidth" markerWidth="7" orient="auto-start-reverse" refX="8.5" refY="5" viewBox="0 0 10 10"><path fill="#f9ab00" d="M0,0 L10,5 L0,10 z"/></marker></defs><rect width="1320" height="1530" fill="#fff"/><text x="660" y="42" fill="#202124" font-family="Arial, Helvetica, sans-serif" font-size="30" font-weight="700" text-anchor="middle"><tspan x="660" dy="0">TorchTitan + Verifiers: Current Integration</tspan></text><rect width="1200" height="260" x="50" y="85" fill="#fff" stroke="#1a73e8" stroke-width="3" rx="18"/><text x="650" y="120" fill="#174ea6" font-family="Arial, Helvetica, sans-serif" font-size="24" font-weight="700" text-anchor="middle"><tspan x="650" dy="0">TorchTitan Controller / VerifiersRollouter process</tspan></text><rect width="170" height="60" x="90" y="150" fill="#e8f0fe" stroke="#5f6368" stroke-width="2" rx="12"/><text x="175" y="185" fill="#202124" font-family="Arial, Helvetica, sans-serif" font-size="15" font-weight="500" text-anchor="middle"><tspan x="175" dy="0">VerifiersRollouter</tspan></text><rect width="130" height="60" x="300" y="150" fill="#e8f0fe" stroke="#5f6368" stroke-width="2" rx="12"/><text x="365" y="185" fill="#202124" font-family="Arial, Helvetica, sans-serif" font-size="15" font-weight="500" text-anchor="middle"><tspan x="365" dy="0">EnvClient</tspan></text><rect width="190" height="60" x="520" y="150" fill="#e8f0fe" stroke="#5f6368" stroke-width="2" rx="12"/><text x="615" y="176" fill="#202124" font-family="Arial, Helvetica, sans-serif" font-size="15" font-weight="500" text-anchor="middle"><tspan x="615" dy="0">GenerationServer</tspan> <tspan x="615" dy="18">HTTP bridge</tspan></text><rect width="160" height="60" x="820" y="150" fill="#e8f0fe" stroke="#5f6368" stroke-width="2" rx="12"/><text x="900" y="176" fill="#202124" font-family="Arial, Helvetica, sans-serif" font-size="14" font-weight="500" text-anchor="middle"><tspan x="900" dy="0">GenerateFn closure</tspan> <tspan x="900" dy="18">RPC call only</tspan></text><rect width="570" height="240" x="50" y="430" fill="#fff" stroke="#d93025" stroke-width="3" rx="18"/><text x="335" y="465" fill="#b31412" font-family="Arial, Helvetica, sans-serif" font-size="22" font-weight="700" text-anchor="middle"><tspan x="335" dy="0">TorchTitan Generator actor / GPU processes</tspan></text><rect width="350" height="72" x="160" y="510" fill="#fce8e6" stroke="#d93025" stroke-width="2" rx="12"/><text x="335" y="542" fill="#202124" font-family="Arial, Helvetica, sans-serif" font-size="16" font-weight="500" text-anchor="middle"><tspan x="335" dy="0">VLLMGenerator actors</tspan> <tspan x="335" dy="18">Model inference</tspan></text><rect width="570" height="240" x="680" y="430" fill="#fff" stroke="#9334e6" stroke-width="3" rx="18"/><text x="965" y="465" fill="#7627bb" font-family="Arial, Helvetica, sans-serif" font-size="22" font-weight="700" text-anchor="middle"><tspan x="965" dy="0">TorchTitan Generator router process</tspan></text><rect width="330" height="72" x="800" y="510" fill="#f3e8fd" stroke="#9334e6" stroke-width="2" rx="12"/><text x="965" y="551" fill="#202124" font-family="Arial, Helvetica, sans-serif" font-size="15" font-weight="500" text-anchor="middle"><tspan x="965" dy="0">InterGeneratorRouter.generate</tspan></text><rect width="1200" height="400" x="50" y="730" fill="#fff" stroke="#188038" stroke-width="3" rx="18"/><text x="650" y="765" fill="#137333" font-family="Arial, Helvetica, sans-serif" font-size="24" font-weight="700" text-anchor="middle"><tspan x="650" dy="0">Verifiers EnvServer Process(es)</tspan></text><rect width="140" height="65" x="90" y="810" fill="#e6f4ea" stroke="#5f6368" stroke-width="2" rx="12"/><text x="160" y="847.5" fill="#202124" font-family="Arial, Helvetica, sans-serif" font-size="15" font-weight="500" text-anchor="middle"><tspan x="160" dy="0">EnvServer</tspan></text><rect width="210" height="75" x="270" y="805" fill="#e6f4ea" stroke="#5f6368" stroke-width="2" rx="12"/><text x="375" y="824.5" fill="#202124" font-family="Arial, Helvetica, sans-serif" font-size="13" font-weight="500" text-anchor="middle"><tspan x="375" dy="0">Current: Agent + harness</tspan> <tspan x="375" dy="17">RolloutRun</tspan> <tspan x="375" dy="17">outside sandbox</tspan></text><rect width="170" height="65" x="520" y="810" fill="#e6f4ea" stroke="#5f6368" stroke-width="2" rx="12"/><text x="605" y="847.5" fill="#202124" font-family="Arial, Helvetica, sans-serif" font-size="14" font-weight="500" text-anchor="middle"><tspan x="605" dy="0">InterceptionServer</tspan></text><rect width="240" height="65" x="790" y="810" fill="#e6f4ea" stroke="#5f6368" stroke-width="2" rx="12"/><text x="910" y="838.5" fill="#202124" font-family="Arial, Helvetica, sans-serif" font-size="14" font-weight="500" text-anchor="middle"><tspan x="910" dy="0">Completed Episode</tspan> <tspan x="910" dy="18">rollout trace + reward</tspan></text><rect width="210" height="65" x="520" y="1010" fill="#e6f4ea" stroke="#5f6368" stroke-width="2" rx="12"/><text x="625" y="1047.5" fill="#202124" font-family="Arial, Helvetica, sans-serif" font-size="15" font-weight="500" text-anchor="middle"><tspan x="625" dy="0">TrainClient + renderer</tspan></text><rect width="520" height="290" x="400" y="1190" fill="#fff" stroke="#f9ab00" stroke-width="3" rx="18"/><text x="660" y="1225" fill="#b06000" font-family="Arial, Helvetica, sans-serif" font-size="22" font-weight="700" text-anchor="middle"><tspan x="660" dy="0">Verifiers-configured runtime / sandbox</tspan></text><rect width="440" height="70" x="440" y="1260" fill="#fef7e0" stroke="#8d6e3f" stroke-width="2" rx="12"/><text x="660" y="1287" fill="#202124" font-family="Arial, Helvetica, sans-serif" font-size="14" font-weight="500" text-anchor="middle"><tspan x="660" dy="0">Example: local Subprocess runtime</tspan> <tspan x="660" dy="18">Null harness; no tools or isolation</tspan></text><rect width="440" height="80" x="440" y="1370" fill="#fff8e1" stroke="#f9ab00" stroke-dasharray="8 7" stroke-width="2" rx="12"/><text x="660" y="1401" fill="#202124" font-family="Arial, Helvetica, sans-serif" font-size="13" font-weight="500" text-anchor="middle"><tspan x="660" dy="0">Potential: Agent + harness + model client in sandbox</tspan> <tspan x="660" dy="17">Requires GenerationServer network access from the sandbox</tspan></text><path fill="none" stroke="#5f6368" stroke-linecap="round" stroke-linejoin="round" stroke-width="2" marker-end="url(#gray)" d="M260 180 H300"/><rect width="260" height="27" x="235" y="218" fill="#fff" stroke="none" stroke-width="0" rx="5"/><text x="365" y="235" fill="#3c4043" font-family="Arial, Helvetica, sans-serif" font-size="13" font-weight="500" text-anchor="middle"><tspan x="365" dy="0">run episode / return Episode[Trace]</tspan></text><path fill="none" stroke="#5f6368" stroke-linecap="round" stroke-linejoin="round" stroke-width="2" marker-end="url(#gray)" d="M710 180 H820"/><rect width="130" height="27" x="705" y="216" fill="#fff" stroke="none" stroke-width="0" rx="5"/><text x="770" y="233" fill="#3c4043" font-family="Arial, Helvetica, sans-serif" font-size="13" font-weight="500" text-anchor="middle"><tspan x="770" dy="0">in-process call</tspan></text><path fill="none" stroke="#5f6368" stroke-linecap="round" stroke-linejoin="round" stroke-width="2" marker-end="url(#gray)" marker-start="url(#gray)" d="M900 210 V510"/><rect width="200" height="44" x="915" y="275" fill="#fff" stroke="none" stroke-width="0" rx="5"/><text x="1015" y="292" fill="#3c4043" font-family="Arial, Helvetica, sans-serif" font-size="13" font-weight="500" text-anchor="middle"><tspan x="1015" dy="0">Monarch actor RPC</tspan> <tspan x="1015" dy="17">request / Completion</tspan></text><path fill="none" stroke="#1a73e8" stroke-linecap="round" stroke-linejoin="round" stroke-width="2" marker-end="url(#blue)" marker-start="url(#blue)" d="M800 546 H510"/><rect width="210" height="27" x="385" y="605" fill="#fff" stroke="none" stroke-width="0" rx="5"/><text x="490" y="622" fill="#174ea6" font-family="Arial, Helvetica, sans-serif" font-size="13" font-weight="500" text-anchor="middle"><tspan x="490" dy="0">request / Completion</tspan></text><path fill="none" stroke="#5f6368" stroke-linecap="round" stroke-linejoin="round" stroke-width="2" marker-end="url(#gray)" marker-start="url(#gray)" d="M365 210 V370 H650 V700 H160 V810"/><rect width="70" height="27" x="615" y="675" fill="#fff" stroke="none" stroke-width="0" rx="5"/><text x="650" y="692" fill="#3c4043" font-family="Arial, Helvetica, sans-serif" font-size="13" font-weight="700" text-anchor="middle"><tspan x="650" dy="0">ZMQ</tspan></text><path fill="none" stroke="#5f6368" stroke-linecap="round" stroke-linejoin="round" stroke-width="2" marker-end="url(#gray)" d="M230 842 H270"/><rect width="80" height="27" x="220" y="782" fill="#fff" stroke="none" stroke-width="0" rx="5"/><text x="260" y="799" fill="#3c4043" font-family="Arial, Helvetica, sans-serif" font-size="13" font-weight="500" text-anchor="middle"><tspan x="260" dy="0">start</tspan></text><path fill="none" stroke="#5f6368" stroke-linecap="round" stroke-linejoin="round" stroke-width="2" marker-end="url(#gray)" d="M480 842 H520"/><rect width="110" height="27" x="455" y="782" fill="#fff" stroke="none" stroke-width="0" rx="5"/><text x="510" y="799" fill="#3c4043" font-family="Arial, Helvetica, sans-serif" font-size="13" font-weight="500" text-anchor="middle"><tspan x="510" dy="0">model turn</tspan></text><path fill="none" stroke="#5f6368" stroke-linecap="round" stroke-linejoin="round" stroke-width="2" marker-end="url(#gray)" d="M690 842 H790"/><rect width="100" height="27" x="690" y="782" fill="#fff" stroke="none" stroke-width="0" rx="5"/><text x="740" y="799" fill="#3c4043" font-family="Arial, Helvetica, sans-serif" font-size="13" font-weight="500" text-anchor="middle"><tspan x="740" dy="0">finish episode</tspan></text><path fill="none" stroke="#5f6368" stroke-linecap="round" stroke-linejoin="round" stroke-width="2" marker-end="url(#gray)" d="M605 875 V950 H625 V1010"/><rect width="170" height="27" x="630" y="925" fill="#fff" stroke="none" stroke-width="0" rx="5"/><text x="715" y="942" fill="#3c4043" font-family="Arial, Helvetica, sans-serif" font-size="13" font-weight="500" text-anchor="middle"><tspan x="715" dy="0">render messages</tspan></text><path fill="none" stroke="#5f6368" stroke-linecap="round" stroke-linejoin="round" stroke-width="2" marker-end="url(#gray)" marker-start="url(#gray)" d="M730 1042 H1280 V65 H615 V150"/><rect width="245" height="44" x="1015" y="680" fill="#fff" stroke="none" stroke-width="0" rx="5"/><text x="1137.5" y="697" fill="#3c4043" font-family="Arial, Helvetica, sans-serif" font-size="13" font-weight="500" text-anchor="middle"><tspan x="1137.5" dy="0">HTTP token generation</tspan> <tspan x="1137.5" dy="17">request / response</tspan></text><path fill="none" stroke="#f9ab00" stroke-linecap="round" stroke-linejoin="round" stroke-width="2" marker-end="url(#orange)" d="M330 880 V1155 H330 V1295 H440"/><rect width="210" height="44" x="180" y="1138" fill="#fff" stroke="none" stroke-width="0" rx="5"/><text x="285" y="1155" fill="#b06000" font-family="Arial, Helvetica, sans-serif" font-size="13" font-weight="500" text-anchor="middle"><tspan x="285" dy="0">runtime lifecycle /</tspan> <tspan x="285" dy="17">environment actions</tspan></text><path fill="none" stroke="#f9ab00" stroke-dasharray="8 7" stroke-linecap="round" stroke-linejoin="round" stroke-width="2" marker-end="url(#orange)" d="M430 880 V1160 H940 V1410 H880"/><rect width="250" height="44" x="680" y="1142" fill="#fff" stroke="none" stroke-width="0" rx="5"/><text x="805" y="1159" fill="#b06000" font-family="Arial, Helvetica, sans-serif" font-size="13" font-weight="500" text-anchor="middle"><tspan x="805" dy="0">potential placement:</tspan> <tspan x="805" dy="17">move agent into sandbox</tspan></text></svg>